<svg width="250" height="250" viewBox="0 0 250 250" fill="none" xmlns="http://www.w3.org/2000/svg">
<path d="M162.617 65.3825L155.215 72.785C162.775 80.3975 167.5 90.8975 167.5 102.5C167.5 113.639 163.075 124.322 155.198 132.198C147.322 140.075 136.639 144.5 125.5 144.5C114.361 144.5 103.678 140.075 95.8015 132.198C87.925 124.322 83.5 113.639 83.5 102.5C83.5 81.08 99.5125 63.44 120.25 60.8675V71.4725C105.34 73.9925 94 86.9075 94 102.5C94 110.854 97.3187 118.866 103.226 124.774C109.134 130.681 117.146 134 125.5 134C133.854 134 141.866 130.681 147.774 124.774C153.681 118.866 157 110.854 157 102.5C157 93.785 153.483 85.91 147.76 80.24L140.358 87.6425C144.138 91.475 146.5 96.725 146.5 102.5C146.5 108.07 144.287 113.411 140.349 117.349C136.411 121.287 131.07 123.5 125.5 123.5C119.93 123.5 114.589 121.287 110.651 117.349C106.713 113.411 104.5 108.07 104.5 102.5C104.5 92.735 111.22 84.5975 120.25 82.235V93.47C117.1 95.3075 115 98.615 115 102.5C115 105.285 116.106 107.955 118.075 109.925C120.045 111.894 122.715 113 125.5 113C128.285 113 130.955 111.894 132.925 109.925C134.894 107.955 136 105.285 136 102.5C136 98.615 133.9 95.255 130.75 93.47V50H125.5C118.606 50 111.779 51.358 105.409 53.9963C99.0396 56.6347 93.252 60.5018 88.3769 65.3769C78.5312 75.2226 73 88.5761 73 102.5C73 116.424 78.5312 129.777 88.3769 139.623C93.252 144.498 99.0396 148.365 105.409 151.004C111.779 153.642 118.606 155 125.5 155C139.424 155 152.777 149.469 162.623 139.623C172.469 129.777 178 116.424 178 102.5C178 88.01 172.12 74.885 162.617 65.3825Z" fill="url(#paint0_linear)"/>
<path d="M19.3708 191.43C20.0308 191.43 20.5708 191.38 20.9908 191.28C21.4308 191.16 21.7808 191.01 22.0408 190.83C22.3008 190.63 22.4808 190.4 22.5808 190.14C22.6808 189.88 22.7308 189.59 22.7308 189.27C22.7308 188.59 22.4108 188.03 21.7708 187.59C21.1308 187.13 20.0308 186.64 18.4708 186.12C17.7908 185.88 17.1108 185.61 16.4308 185.31C15.7508 184.99 15.1408 184.6 14.6008 184.14C14.0608 183.66 13.6208 183.09 13.2808 182.43C12.9408 181.75 12.7708 180.93 12.7708 179.97C12.7708 179.01 12.9508 178.15 13.3108 177.39C13.6708 176.61 14.1808 175.95 14.8408 175.41C15.5008 174.87 16.3008 174.46 17.2408 174.18C18.1808 173.88 19.2408 173.73 20.4208 173.73C21.8208 173.73 23.0308 173.88 24.0508 174.18C25.0708 174.48 25.9108 174.81 26.5708 175.17L25.2208 178.86C24.6408 178.56 23.9908 178.3 23.2708 178.08C22.5708 177.84 21.7208 177.72 20.7208 177.72C19.6008 177.72 18.7908 177.88 18.2908 178.2C17.8108 178.5 17.5708 178.97 17.5708 179.61C17.5708 179.99 17.6608 180.31 17.8408 180.57C18.0208 180.83 18.2708 181.07 18.5908 181.29C18.9308 181.49 19.3108 181.68 19.7308 181.86C20.1708 182.02 20.6508 182.19 21.1708 182.37C22.2508 182.77 23.1908 183.17 23.9908 183.57C24.7908 183.95 25.4508 184.4 25.9708 184.92C26.5108 185.44 26.9108 186.05 27.1708 186.75C27.4308 187.45 27.5608 188.3 27.5608 189.3C27.5608 191.24 26.8808 192.75 25.5208 193.83C24.1608 194.89 22.1108 195.42 19.3708 195.42C18.4508 195.42 17.6208 195.36 16.8808 195.24C16.1408 195.14 15.4808 195.01 14.9008 194.85C14.3408 194.69 13.8508 194.52 13.4308 194.34C13.0308 194.16 12.6908 193.99 12.4108 193.83L13.7308 190.11C14.3508 190.45 15.1108 190.76 16.0108 191.04C16.9308 191.3 18.0508 191.43 19.3708 191.43ZM30.1117 187.23C30.1117 185.83 30.3217 184.61 30.7417 183.57C31.1817 182.51 31.7517 181.63 32.4517 180.93C33.1517 180.23 33.9517 179.7 34.8517 179.34C35.7717 178.98 36.7117 178.8 37.6717 178.8C39.9117 178.8 41.6817 179.49 42.9817 180.87C44.2817 182.23 44.9317 184.24 44.9317 186.9C44.9317 187.16 44.9217 187.45 44.9017 187.77C44.8817 188.07 44.8617 188.34 44.8417 188.58H34.7017C34.8017 189.5 35.2317 190.23 35.9917 190.77C36.7517 191.31 37.7717 191.58 39.0517 191.58C39.8717 191.58 40.6717 191.51 41.4517 191.37C42.2517 191.21 42.9017 191.02 43.4017 190.8L44.0017 194.43C43.7617 194.55 43.4417 194.67 43.0417 194.79C42.6417 194.91 42.1917 195.01 41.6917 195.09C41.2117 195.19 40.6917 195.27 40.1317 195.33C39.5717 195.39 39.0117 195.42 38.4517 195.42C37.0317 195.42 35.7917 195.21 34.7317 194.79C33.6917 194.37 32.8217 193.8 32.1217 193.08C31.4417 192.34 30.9317 191.47 30.5917 190.47C30.2717 189.47 30.1117 188.39 30.1117 187.23ZM40.6117 185.52C40.5917 185.14 40.5217 184.77 40.4017 184.41C40.3017 184.05 40.1317 183.73 39.8917 183.45C39.6717 183.17 39.3817 182.94 39.0217 182.76C38.6817 182.58 38.2517 182.49 37.7317 182.49C37.2317 182.49 36.8017 182.58 36.4417 182.76C36.0817 182.92 35.7817 183.14 35.5417 183.42C35.3017 183.7 35.1117 184.03 34.9717 184.41C34.8517 184.77 34.7617 185.14 34.7017 185.52H40.6117ZM57.8913 183.18C57.4913 183.08 57.0213 182.98 56.4813 182.88C55.9413 182.76 55.3613 182.7 54.7413 182.7C54.4613 182.7 54.1213 182.73 53.7213 182.79C53.3413 182.83 53.0513 182.88 52.8513 182.94V195H48.3813V180.06C49.1813 179.78 50.1213 179.52 51.2013 179.28C52.3013 179.02 53.5213 178.89 54.8613 178.89C55.1013 178.89 55.3913 178.91 55.7313 178.95C56.0713 178.97 56.4113 179.01 56.7513 179.07C57.0913 179.11 57.4313 179.17 57.7713 179.25C58.1113 179.31 58.4013 179.39 58.6413 179.49L57.8913 183.18ZM74.5075 194.46C73.7475 194.68 72.7675 194.88 71.5675 195.06C70.3675 195.26 69.1075 195.36 67.7875 195.36C66.4475 195.36 65.3275 195.18 64.4275 194.82C63.5475 194.46 62.8475 193.96 62.3275 193.32C61.8075 192.66 61.4375 191.88 61.2175 190.98C60.9975 190.08 60.8875 189.09 60.8875 188.01V179.22H65.3575V187.47C65.3575 188.91 65.5475 189.95 65.9275 190.59C66.3075 191.23 67.0175 191.55 68.0575 191.55C68.3775 191.55 68.7175 191.54 69.0775 191.52C69.4375 191.48 69.7575 191.44 70.0375 191.4V179.22H74.5075V194.46ZM87.3735 186.63C87.3735 185.19 87.1835 184.17 86.8035 183.57C86.4435 182.97 85.8135 182.67 84.9135 182.67C84.6335 182.67 84.3435 182.69 84.0435 182.73C83.7435 182.75 83.4535 182.78 83.1735 182.82V195H78.7035V179.76C79.0835 179.66 79.5235 179.56 80.0235 179.46C80.5435 179.34 81.0835 179.24 81.6435 179.16C82.2235 179.06 82.8135 178.99 83.4135 178.95C84.0135 178.89 84.6035 178.86 85.1835 178.86C86.3235 178.86 87.2435 179.01 87.9435 179.31C88.6635 179.59 89.2535 179.93 89.7135 180.33C90.3535 179.87 91.0835 179.51 91.9035 179.25C92.7435 178.99 93.5135 178.86 94.2135 178.86C95.4735 178.86 96.5035 179.04 97.3035 179.4C98.1235 179.74 98.7735 180.23 99.2535 180.87C99.7335 181.51 100.064 182.27 100.244 183.15C100.424 184.03 100.514 185.01 100.514 186.09V195H96.0435V186.63C96.0435 185.19 95.8535 184.17 95.4735 183.57C95.1135 182.97 94.4835 182.67 93.5835 182.67C93.3435 182.67 93.0035 182.73 92.5635 182.85C92.1435 182.97 91.7935 183.12 91.5135 183.3C91.6535 183.76 91.7435 184.25 91.7835 184.77C91.8235 185.27 91.8435 185.81 91.8435 186.39V195H87.3735V186.63ZM118.32 173.97C121.42 173.97 123.8 174.52 125.46 175.62C127.12 176.7 127.95 178.48 127.95 180.96C127.95 183.46 127.11 185.27 125.43 186.39C123.75 187.49 121.35 188.04 118.23 188.04H116.76V195H112.08V174.51C113.1 174.31 114.18 174.17 115.32 174.09C116.46 174.01 117.46 173.97 118.32 173.97ZM118.62 177.96C118.28 177.96 117.94 177.97 117.6 177.99C117.28 178.01 117 178.03 116.76 178.05V184.05H118.23C119.85 184.05 121.07 183.83 121.89 183.39C122.71 182.95 123.12 182.13 123.12 180.93C123.12 180.35 123.01 179.87 122.79 179.49C122.59 179.11 122.29 178.81 121.89 178.59C121.51 178.35 121.04 178.19 120.48 178.11C119.92 178.01 119.3 177.96 118.62 177.96ZM140.596 183.18C140.196 183.08 139.726 182.98 139.186 182.88C138.646 182.76 138.066 182.7 137.446 182.7C137.166 182.7 136.826 182.73 136.426 182.79C136.046 182.83 135.756 182.88 135.556 182.94V195H131.086V180.06C131.886 179.78 132.826 179.52 133.906 179.28C135.006 179.02 136.226 178.89 137.566 178.89C137.806 178.89 138.096 178.91 138.436 178.95C138.776 178.97 139.116 179.01 139.456 179.07C139.796 179.11 140.136 179.17 140.476 179.25C140.816 179.31 141.106 179.39 141.346 179.49L140.596 183.18ZM148.213 195H143.743V179.22H148.213V195ZM148.633 174.66C148.633 175.48 148.363 176.13 147.823 176.61C147.303 177.07 146.683 177.3 145.963 177.3C145.243 177.3 144.613 177.07 144.073 176.61C143.553 176.13 143.293 175.48 143.293 174.66C143.293 173.84 143.553 173.2 144.073 172.74C144.613 172.26 145.243 172.02 145.963 172.02C146.683 172.02 147.303 172.26 147.823 172.74C148.363 173.2 148.633 173.84 148.633 174.66ZM151.664 187.11C151.664 185.97 151.844 184.9 152.204 183.9C152.584 182.88 153.124 182 153.824 181.26C154.524 180.5 155.374 179.9 156.374 179.46C157.374 179.02 158.514 178.8 159.794 178.8C160.634 178.8 161.404 178.88 162.104 179.04C162.804 179.18 163.484 179.39 164.144 179.67L163.214 183.24C162.794 183.08 162.334 182.94 161.834 182.82C161.334 182.7 160.774 182.64 160.154 182.64C158.834 182.64 157.844 183.05 157.184 183.87C156.544 184.69 156.224 185.77 156.224 187.11C156.224 188.53 156.524 189.63 157.124 190.41C157.744 191.19 158.814 191.58 160.334 191.58C160.874 191.58 161.454 191.53 162.074 191.43C162.694 191.33 163.264 191.17 163.784 190.95L164.414 194.61C163.894 194.83 163.244 195.02 162.464 195.18C161.684 195.34 160.824 195.42 159.884 195.42C158.444 195.42 157.204 195.21 156.164 194.79C155.124 194.35 154.264 193.76 153.584 193.02C152.924 192.28 152.434 191.41 152.114 190.41C151.814 189.39 151.664 188.29 151.664 187.11ZM165.903 187.23C165.903 185.83 166.113 184.61 166.533 183.57C166.973 182.51 167.543 181.63 168.243 180.93C168.943 180.23 169.743 179.7 170.643 179.34C171.563 178.98 172.503 178.8 173.463 178.8C175.703 178.8 177.473 179.49 178.773 180.87C180.073 182.23 180.723 184.24 180.723 186.9C180.723 187.16 180.713 187.45 180.693 187.77C180.673 188.07 180.653 188.34 180.633 188.58H170.493C170.593 189.5 171.023 190.23 171.783 190.77C172.543 191.31 173.563 191.58 174.843 191.58C175.663 191.58 176.463 191.51 177.243 191.37C178.043 191.21 178.693 191.02 179.193 190.8L179.793 194.43C179.553 194.55 179.233 194.67 178.833 194.79C178.433 194.91 177.983 195.01 177.483 195.09C177.003 195.19 176.483 195.27 175.923 195.33C175.363 195.39 174.803 195.42 174.243 195.42C172.823 195.42 171.583 195.21 170.523 194.79C169.483 194.37 168.613 193.8 167.913 193.08C167.233 192.34 166.723 191.47 166.383 190.47C166.063 189.47 165.903 188.39 165.903 187.23ZM176.403 185.52C176.383 185.14 176.313 184.77 176.193 184.41C176.093 184.05 175.923 183.73 175.683 183.45C175.463 183.17 175.173 182.94 174.813 182.76C174.473 182.58 174.043 182.49 173.523 182.49C173.023 182.49 172.593 182.58 172.233 182.76C171.873 182.92 171.573 183.14 171.333 183.42C171.093 183.7 170.903 184.03 170.763 184.41C170.643 184.77 170.553 185.14 170.493 185.52H176.403ZM205.599 195C205.379 194.28 205.129 193.54 204.849 192.78C204.589 192.02 204.329 191.26 204.069 190.5H195.969C195.709 191.26 195.439 192.02 195.159 192.78C194.899 193.54 194.659 194.28 194.439 195H189.579C190.359 192.76 191.099 190.69 191.799 188.79C192.499 186.89 193.179 185.1 193.839 183.42C194.519 181.74 195.179 180.15 195.819 178.65C196.479 177.13 197.159 175.65 197.859 174.21H202.329C203.009 175.65 203.679 177.13 204.339 178.65C204.999 180.15 205.659 181.74 206.319 183.42C206.999 185.1 207.689 186.89 208.389 188.79C209.089 190.69 209.829 192.76 210.609 195H205.599ZM199.989 178.92C199.889 179.22 199.739 179.63 199.539 180.15C199.339 180.67 199.109 181.27 198.849 181.95C198.589 182.63 198.299 183.38 197.979 184.2C197.679 185.02 197.369 185.88 197.049 186.78H202.959C202.639 185.88 202.329 185.02 202.029 184.2C201.729 183.38 201.439 182.63 201.159 181.95C200.899 181.27 200.669 180.67 200.469 180.15C200.269 179.63 200.109 179.22 199.989 178.92ZM219.54 173.97C222.64 173.97 225.02 174.52 226.68 175.62C228.34 176.7 229.17 178.48 229.17 180.96C229.17 183.46 228.33 185.27 226.65 186.39C224.97 187.49 222.57 188.04 219.45 188.04H217.98V195H213.3V174.51C214.32 174.31 215.4 174.17 216.54 174.09C217.68 174.01 218.68 173.97 219.54 173.97ZM219.84 177.96C219.5 177.96 219.16 177.97 218.82 177.99C218.5 178.01 218.22 178.03 217.98 178.05V184.05H219.45C221.07 184.05 222.29 183.83 223.11 183.39C223.93 182.95 224.34 182.13 224.34 180.93C224.34 180.35 224.23 179.87 224.01 179.49C223.81 179.11 223.51 178.81 223.11 178.59C222.73 178.35 222.26 178.19 221.7 178.11C221.14 178.01 220.52 177.96 219.84 177.96ZM232.607 174.21H237.287V195H232.607V174.21Z" fill="black"/>
<defs>
<linearGradient id="paint0_linear" x1="160.382" y1="50.1105" x2="67.1033" y2="144.075" gradientUnits="userSpaceOnUse">
<stop offset="0.0416667" stop-color="#00F299"/>
<stop offset="0.947917" stop-color="#D119FF"/>
</linearGradient>
</defs>
</svg>
