<svg width="160" height="160" viewBox="0 0 160 160" fill="none" xmlns="http://www.w3.org/2000/svg">
<path d="M117.617 43.3825L110.215 50.785C117.775 58.3975 122.5 68.8975 122.5 80.5C122.5 91.6391 118.075 102.322 110.198 110.198C102.322 118.075 91.6391 122.5 80.5 122.5C69.3609 122.5 58.678 118.075 50.8015 110.198C42.925 102.322 38.5 91.6391 38.5 80.5C38.5 59.08 54.5125 41.44 75.25 38.8675V49.4725C60.34 51.9925 49 64.9075 49 80.5C49 88.8543 52.3187 96.8664 58.2262 102.774C64.1336 108.681 72.1457 112 80.5 112C88.8543 112 96.8664 108.681 102.774 102.774C108.681 96.8664 112 88.8543 112 80.5C112 71.785 108.483 63.91 102.76 58.24L95.3575 65.6425C99.1375 69.475 101.5 74.725 101.5 80.5C101.5 86.0696 99.2875 91.411 95.3493 95.3493C91.411 99.2875 86.0696 101.5 80.5 101.5C74.9304 101.5 69.589 99.2875 65.6507 95.3493C61.7125 91.411 59.5 86.0696 59.5 80.5C59.5 70.735 66.22 62.5975 75.25 60.235V71.47C72.1 73.3075 70 76.615 70 80.5C70 83.2848 71.1063 85.9554 73.0754 87.9246C75.0446 89.8937 77.7152 91 80.5 91C83.2848 91 85.9554 89.8937 87.9246 87.9246C89.8937 85.9554 91 83.2848 91 80.5C91 76.615 88.9 73.255 85.75 71.47V28H80.5C73.6056 28 66.7787 29.358 60.4091 31.9963C54.0396 34.6347 48.252 38.5018 43.3769 43.3769C33.5312 53.2226 28 66.5761 28 80.5C28 94.4239 33.5312 107.777 43.3769 117.623C48.252 122.498 54.0396 126.365 60.4091 129.004C66.7787 131.642 73.6056 133 80.5 133C94.4239 133 107.777 127.469 117.623 117.623C127.469 107.777 133 94.4239 133 80.5C133 66.01 127.12 52.885 117.617 43.3825Z" fill="url(#paint0_linear)"/>
<defs>
<linearGradient id="paint0_linear" x1="115.382" y1="28.1105" x2="22.1033" y2="122.075" gradientUnits="userSpaceOnUse">
<stop offset="0.0416667" stop-color="#00F299"/>
<stop offset="0.947917" stop-color="#D119FF"/>
</linearGradient>
</defs>
</svg>
